<svg width="192" height="217" viewBox="0 0 192 217" fill="none" xmlns="http://www.w3.org/2000/svg">
<path d="M22.426 88.25C22.8034 83.5513 24.9378 79.167 28.4043 75.9703C31.8707 72.7736 36.4149 70.999 41.1317 71H154.247C158.964 70.999 163.508 72.7736 166.975 75.9703C170.441 79.167 172.575 83.5513 172.953 88.25L180.486 182C180.693 184.58 180.363 187.175 179.518 189.621C178.672 192.068 177.329 194.313 175.573 196.215C173.817 198.117 171.685 199.635 169.313 200.674C166.941 201.713 164.379 202.249 161.789 202.25H33.5894C30.9995 202.249 28.4378 201.713 26.0657 200.674C23.6935 199.635 21.5622 198.117 19.8059 196.215C18.0497 194.313 16.7065 192.068 15.861 189.621C15.0155 187.175 14.686 184.58 14.8931 182L22.426 88.25V88.25Z" stroke="#EDEDED" stroke-width="28" stroke-linecap="round" stroke-linejoin="round"/>
<path d="M135.213 99.125V52.25C135.213 42.3044 131.26 32.7661 124.223 25.7335C117.186 18.7009 107.641 14.75 97.6895 14.75C87.7375 14.75 78.1932 18.7009 71.1561 25.7335C64.119 32.7661 60.1656 42.3044 60.1656 52.25V99.125" stroke="#EDEDED" stroke-width="28" stroke-linecap="round" stroke-linejoin="round"/>
</svg>
